# xmcd
#
# Track frame offsets:
#	150
#	14865
#	28350
#	41887
#	54182
#	67927
#	79822
#	91482
#	104665
#	118455
#	131390
#	143555
#	156792
#	171487
#	186117
#	199902
#	211495
#	224610
#	237705
#	252550
#
# Disc length: 3531
#
# Revision: 1
# Processed by: cddbd v1.5.1PL0 Copyright (c) Steve Scherf et al.
# Submitted via: ExactAudioCopy v0.90b4
# Normalized: r0:DSETVAR1
#
DISCID=400dc914
DTITLE=Various Artist - Sun Risin Blues cd1
DYEAR=2001
DGENRE=Blues
TTITLE0=Huddie Leadbelly Ledbetter - In New Orleans
TTITLE1=Alonzo Lonnie Johnson - Backwater Blues
TTITLE2=Big Bill Broonzy - Come Home Early
TTITLE3=Big Bill Broonzy - Eagle Riding Papa
TTITLE4=Mississippi John Hurt - Avalon Blues
TTITLE5=James Edward Yancey - Rolling The Stone
TTITLE6=Sleepy John Estes - Clean Up At Home
TTITLE7=Sleepy John Estes - Jailhouse Blues
TTITLE8=Blind Willie McTell - Georgia Rag
TTITLE9=Blind Willie McTell - Lord, Send Me An Angel
TTITLE10=William 'Count' Basie - Do You Wanna Jump, Children?
TTITLE11=Big Boy Crudup - I Wan't My Lovin'
TTITLE12=Big Boy Crudup - Who's Been Foolin' You
TTITLE13=Big Boy Crudup - Death Valley Blues
TTITLE14=Big Boy Crudup - That's Why I'm Lonesome
TTITLE15=Little Brother Montgomery - Crescent City Blues
TTITLE16=Blind Boy Fuller - I'm Stranger Here
TTITLE17=Hot Lips Pages - Just Another Woman
TTITLE18=Hot Lips Pages - Uncle Sam's Blues
TTITLE19=Benny Goodman - He Ain't Got Rhythm
EXTD=
EXTT0=
EXTT1=
EXTT2=
EXTT3=
EXTT4=
EXTT5=
EXTT6=
EXTT7=
EXTT8=
EXTT9=
EXTT10=
EXTT11=
EXTT12=
EXTT13=
EXTT14=
EXTT15=
EXTT16=
EXTT17=
EXTT18=
EXTT19=
PLAYORDER=
